<svg xmlns="http://www.w3.org/2000/svg" viewBox="0 0 200 200">
  <defs>
    <linearGradient id="space-gradient" x1="0%" y1="0%" x2="100%" y2="100%">
      <stop offset="0%" style="stop-color:#000033"/>
      <stop offset="100%" style="stop-color:#000066"/>
    </linearGradient>
    <filter id="glow" x="-20%" y="-20%" width="140%" height="140%">
      <feGaussianBlur stdDeviation="2" result="blur"/>
      <feMerge>
        <feMergeNode in="blur"/>
        <feMergeNode in="SourceGraphic"/>
      </feMerge>
    </filter>
  </defs>
  
  <!-- Background -->
  <circle cx="100" cy="100" r="100" fill="url(#space-gradient)"/>
  
  <!-- Stars -->
  <g id="stars">
    <circle cx="30" cy="40" r="1" fill="#fff" opacity="0.8"/>
    <circle cx="50" cy="70" r="1.5" fill="#fff" opacity="0.6"/>
    <circle cx="120" cy="30" r="1" fill="#fff" opacity="0.9"/>
    <circle cx="160" cy="50" r="1" fill="#fff" opacity="0.7"/>
    <circle cx="140" cy="140" r="1" fill="#fff" opacity="0.8"/>
    <circle cx="40" cy="150" r="1.5" fill="#fff" opacity="0.6"/>
    <circle cx="170" cy="170" r="1" fill="#fff" opacity="0.9"/>
    <circle cx="80" cy="160" r="1" fill="#fff" opacity="0.7"/>
  </g>
  
  <!-- Stylized telescope observer silhouette -->
  <g fill="#fff" opacity="0.9" filter="url(#glow)">
    <!-- Head -->
    <circle cx="100" cy="70" r="20"/>
    <!-- Body -->
    <path d="M80,90 L70,140 L130,140 L120,90 Z"/>
    <!-- Telescope -->
    <rect x="130" y="75" width="40" height="10" transform="rotate(30 130 75)"/>
  </g>
  
  <!-- Stylized constellation lines -->
  <g stroke="#4fadff" stroke-width="0.5" opacity="0.6">
    <line x1="30" y1="40" x2="50" y2="70"/>
    <line x1="50" y1="70" x2="120" y2="30"/>
    <line x1="120" y1="30" x2="160" y2="50"/>
    <line x1="160" y1="50" x2="140" y2="140"/>
    <line x1="140" y1="140" x2="40" y2="150"/>
  </g>
</svg>