<?xml version="1.0" encoding="UTF-8"?>
<svg width="600" height="60" viewBox="0 0 600 60" xmlns="http://www.w3.org/2000/svg">
  <!-- Space background -->
  <rect width="600" height="60" fill="#0a0a14" rx="5" ry="5"/>
  
  <!-- Small stars in background -->
  <circle cx="50" cy="10" r="0.7" fill="#ffffff" opacity="0.8"/>
  <circle cx="120" cy="15" r="0.5" fill="#ffffff" opacity="0.6"/>
  <circle cx="200" cy="12" r="0.6" fill="#ffffff" opacity="0.7"/>
  <circle cx="280" cy="8" r="0.5" fill="#ffffff" opacity="0.6"/>
  <circle cx="350" cy="14" r="0.7" fill="#ffffff" opacity="0.8"/>
  <circle cx="410" cy="18" r="0.5" fill="#ffffff" opacity="0.7"/>
  <circle cx="480" cy="9" r="0.6" fill="#ffffff" opacity="0.8"/>
  <circle cx="540" cy="16" r="0.5" fill="#ffffff" opacity="0.6"/>
  
  <circle cx="30" cy="30" r="0.6" fill="#ffffff" opacity="0.7"/>
  <circle cx="100" cy="35" r="0.5" fill="#ffffff" opacity="0.6"/>
  <circle cx="170" cy="32" r="0.7" fill="#ffffff" opacity="0.8"/>
  <circle cx="240" cy="28" r="0.5" fill="#ffffff" opacity="0.7"/>
  <circle cx="320" cy="34" r="0.6" fill="#ffffff" opacity="0.8"/>
  <circle cx="390" cy="29" r="0.5" fill="#ffffff" opacity="0.6"/>
  <circle cx="460" cy="31" r="0.7" fill="#ffffff" opacity="0.8"/>
  <circle cx="520" cy="27" r="0.5" fill="#ffffff" opacity="0.7"/>
  
  <circle cx="50" cy="50" r="0.5" fill="#ffffff" opacity="0.6"/>
  <circle cx="120" cy="45" r="0.7" fill="#ffffff" opacity="0.8"/>
  <circle cx="190" cy="48" r="0.5" fill="#ffffff" opacity="0.7"/>
  <circle cx="270" cy="52" r="0.6" fill="#ffffff" opacity="0.8"/>
  <circle cx="340" cy="47" r="0.5" fill="#ffffff" opacity="0.6"/>
  <circle cx="410" cy="49" r="0.7" fill="#ffffff" opacity="0.8"/>
  <circle cx="490" cy="46" r="0.5" fill="#ffffff" opacity="0.7"/>
  <circle cx="560" cy="51" r="0.6" fill="#ffffff" opacity="0.8"/>
  
  <!-- Larger bright stars -->
  <circle cx="80" cy="20" r="1" fill="#ffffff"/>
  <circle cx="220" cy="40" r="1.2" fill="#ffffff"/>
  <circle cx="370" cy="25" r="1" fill="#ffffff"/>
  <circle cx="500" cy="35" r="1.1" fill="#ffffff"/>
  
  <!-- Planet icon -->
  <g transform="translate(20, 30) scale(0.7)">
    <circle cx="0" cy="0" r="20" fill="#1a1a2e"/>
    <ellipse cx="0" cy="0" rx="20" ry="5" fill="#2a2a4a" opacity="0.6"/>
    <circle cx="-8" cy="-5" r="5" fill="#2a2a4a"/>
    <circle cx="5" cy="3" r="7" fill="#3a3a5a"/>
  </g>
  
  <!-- Text "COSMIC LIFE SEARCH" -->
  <text x="60" y="38" font-family="'Space Grotesk', sans-serif" font-size="28" font-weight="bold" fill="#ffffff">COSMIC LIFE SEARCH</text>
  
  <!-- Glowing effect behind text -->
  <text x="60" y="38" font-family="'Space Grotesk', sans-serif" font-size="28" font-weight="bold" fill="url(#textGlow)" opacity="0.7" filter="blur(4px)">COSMIC LIFE SEARCH</text>
  
  <!-- Gradients -->
  <defs>
    <linearGradient id="textGlow" x1="0%" y1="0%" x2="100%" y2="0%">
      <stop offset="0%" stop-color="#7040FF" stop-opacity="1"/>
      <stop offset="50%" stop-color="#BD4BE5" stop-opacity="1"/>
      <stop offset="100%" stop-color="#7040FF" stop-opacity="1"/>
    </linearGradient>
  </defs>
</svg>